<?xml version="1.0" encoding="UTF-8" standalone="no"?>
<svg
   width="60"
   height="44"
   viewBox="0 0 60 44"
   fill="none"
   version="1.1"
   id="svg1"
   xmlns="http://www.w3.org/2000/svg"
   xmlns:svg="http://www.w3.org/2000/svg">
  <defs
     id="defs1" />
  <path
     d="M 12.096,42.4 V 44 H 0 V 42.4 L 3.52,42.08 C 3.98933,42.0373 4.33067,41.9733 4.544,41.888 4.75733,41.76 4.94933,41.4827 5.12,41.056 5.33333,40.6293 5.58933,39.9253 5.888,38.944 L 18.368,0.48 h 3.008 l 12.608,38.464 c 0.3413,0.9813 0.5973,1.6853 0.768,2.112 0.1707,0.4267 0.3627,0.704 0.576,0.832 0.2133,0.0853 0.5333,0.1493 0.96,0.192 l 3.52,0.32 V 44 H 25.664 v -1.6 l 3.52,-0.32 c 0.7253,-0.0853 1.1093,-0.256 1.152,-0.512 0.0427,-0.2987 -0.1707,-1.1733 -0.64,-2.624 L 26.944,30.56 H 10.752 l -2.688,8.384 c -0.46933,1.4507 -0.68267,2.3253 -0.64,2.624 0.08533,0.256 0.46933,0.4267 1.152,0.512 z M 11.392,28.64 H 26.368 L 18.88,5.6 Z M 54.2965,4.896 41.6885,44 h -3.52 L 25.5605,4.896 C 25.1765,3.70133 24.8992,2.99733 24.7285,2.784 24.5578,2.57066 24.1312,2.44266 23.4485,2.4 l -3.136,-0.32 v -1.6 h 13.376 v 1.6 l -3.136,0.32 c -0.6827,0.04266 -1.0667,0.192 -1.152,0.448 -0.0427,0.21333 0.1067,0.896 0.448,2.048 l 11.136,34.88 11.136,-34.88 C 52.5045,3.744 52.6538,3.06133 52.5685,2.848 52.5258,2.592 52.1418,2.44266 51.4165,2.4 l -3.136,-0.32 v -1.6 h 11.2 v 1.6 l -3.136,0.32 c -0.5973,0.04266 -1.0027,0.17066 -1.216,0.384 -0.1707,0.21333 -0.448,0.91733 -0.832,2.112 z"
     fill="#CDCDCD"
     id="path1"
     style="fill:#ffffff" />
</svg>
